<svg width="24" height="24" viewBox="0 0 24 24" fill="none" xmlns="http://www.w3.org/2000/svg">
<path d="M5.52377 7.0001C9.41427 5.74396 13.9724 5.45583 16 5.5001C18.0276 5.54437 18.8831 6.2664 19.5 7.5001C20.5 9.5001 20.289 14.4882 18.5 16.0872C16.712 17.6862 9.33015 17.8382 6.87015 16.0872C4.27115 14.2362 5.629 9.1921 5.544 5.7431C5.595 3.8131 3.5 3.5001 3.5 3.5001" stroke="#667085" strokeWidth="1.5" stroke-linecap="round" stroke-linejoin="round"/>
<path d="M13 10.5001H15.773" stroke="#667085" strokeWidth="1.5" stroke-linecap="round" stroke-linejoin="round"/>
<path fill-rule="evenodd" clip-rule="evenodd" d="M7.26375 20.1275C7.56375 20.1275 7.80775 20.3715 7.80775 20.6715C7.80775 20.9725 7.56375 21.2165 7.26375 21.2165C6.96275 21.2165 6.71875 20.9725 6.71875 20.6715C6.71875 20.3715 6.96275 20.1275 7.26375 20.1275Z" fill="#667085" stroke="#667085" strokeWidth="1.5" stroke-linecap="round" stroke-linejoin="round"/>
<path fill-rule="evenodd" clip-rule="evenodd" d="M17.5953 20.1275C17.8963 20.1275 18.1403 20.3715 18.1403 20.6715C18.1403 20.9725 17.8963 21.2165 17.5953 21.2165C17.2953 21.2165 17.0513 20.9725 17.0513 20.6715C17.0513 20.3715 17.2953 20.1275 17.5953 20.1275Z" fill="#667085" stroke="#667085" strokeWidth="1.5" stroke-linecap="round" stroke-linejoin="round"/>
</svg>
