<svg width="21" height="20" viewBox="0 0 21 20" fill="none" xmlns="http://www.w3.org/2000/svg">
<path d="M8.41675 11.4583C8.41675 12.2667 9.04176 12.9167 9.80843 12.9167H11.3751C12.0417 12.9167 12.5834 12.35 12.5834 11.6417C12.5834 10.8833 12.2501 10.6083 11.7584 10.4333L9.25008 9.55833C8.75841 9.38333 8.42509 9.11667 8.42509 8.35C8.42509 7.65 8.96674 7.075 9.63341 7.075H11.2001C11.9667 7.075 12.5918 7.725 12.5918 8.53334" stroke="#7F56D9" strokeWidth="1.5" stroke-linecap="round" stroke-linejoin="round"/>
<path d="M10.5 6.25V13.75" stroke="#7F56D9" strokeWidth="1.5" stroke-linecap="round" stroke-linejoin="round"/>
<path d="M18.8334 10C18.8334 14.6 15.1001 18.3333 10.5001 18.3333C5.90008 18.3333 2.16675 14.6 2.16675 10C2.16675 5.4 5.90008 1.66667 10.5001 1.66667" stroke="#7F56D9" strokeWidth="1.5" stroke-linecap="round" stroke-linejoin="round"/>
<path d="M18.8333 5V1.66667H15.5" stroke="#7F56D9" strokeWidth="1.5" stroke-linecap="round" stroke-linejoin="round"/>
<path d="M14.6667 5.83333L18.8334 1.66667" stroke="#7F56D9" strokeWidth="1.5" stroke-linecap="round" stroke-linejoin="round"/>
</svg>
